<mxfile host="app.diagrams.net" agent="Mozilla/5.0 (Windows NT 10.0; Win64; x64) AppleWebKit/537.36 (KHTML, like Gecko) Chrome/135.0.0.0 Safari/537.36" version="26.2.14">
  <diagram id="R2lEEEUBdFMjLlhIrx00" name="Page-1">
    <mxGraphModel dx="1507" dy="661" grid="1" gridSize="10" guides="1" tooltips="1" connect="1" arrows="1" fold="1" page="1" pageScale="1" pageWidth="3000" pageHeight="3000" math="0" shadow="0" extFonts="Permanent Marker^https://fonts.googleapis.com/css?family=Permanent+Marker">
      <root>
        <mxCell id="0" />
        <mxCell id="1" parent="0" />
        <mxCell id="C-vyLk0tnHw3VtMMgP7b-23" value="User" style="shape=table;startSize=30;container=1;collapsible=1;childLayout=tableLayout;fixedRows=1;rowLines=0;fontStyle=1;align=center;resizeLast=1;" parent="1" vertex="1">
          <mxGeometry x="330" y="20" width="250" height="220" as="geometry">
            <mxRectangle x="120" y="120" width="100" height="30" as="alternateBounds" />
          </mxGeometry>
        </mxCell>
        <mxCell id="C-vyLk0tnHw3VtMMgP7b-24" value="" style="shape=partialRectangle;collapsible=0;dropTarget=0;pointerEvents=0;fillColor=none;points=[[0,0.5],[1,0.5]];portConstraint=eastwest;top=0;left=0;right=0;bottom=1;" parent="C-vyLk0tnHw3VtMMgP7b-23" vertex="1">
          <mxGeometry y="30" width="250" height="30" as="geometry" />
        </mxCell>
        <mxCell id="C-vyLk0tnHw3VtMMgP7b-25" value="PK" style="shape=partialRectangle;overflow=hidden;connectable=0;fillColor=none;top=0;left=0;bottom=0;right=0;fontStyle=1;" parent="C-vyLk0tnHw3VtMMgP7b-24" vertex="1">
          <mxGeometry width="30" height="30" as="geometry">
            <mxRectangle width="30" height="30" as="alternateBounds" />
          </mxGeometry>
        </mxCell>
        <mxCell id="C-vyLk0tnHw3VtMMgP7b-26" value="user_id" style="shape=partialRectangle;overflow=hidden;connectable=0;fillColor=none;top=0;left=0;bottom=0;right=0;align=left;spacingLeft=6;fontStyle=5;" parent="C-vyLk0tnHw3VtMMgP7b-24" vertex="1">
          <mxGeometry x="30" width="220" height="30" as="geometry">
            <mxRectangle width="220" height="30" as="alternateBounds" />
          </mxGeometry>
        </mxCell>
        <mxCell id="C-vyLk0tnHw3VtMMgP7b-27" value="" style="shape=partialRectangle;collapsible=0;dropTarget=0;pointerEvents=0;fillColor=none;points=[[0,0.5],[1,0.5]];portConstraint=eastwest;top=0;left=0;right=0;bottom=0;" parent="C-vyLk0tnHw3VtMMgP7b-23" vertex="1">
          <mxGeometry y="60" width="250" height="130" as="geometry" />
        </mxCell>
        <mxCell id="C-vyLk0tnHw3VtMMgP7b-28" value="" style="shape=partialRectangle;overflow=hidden;connectable=0;fillColor=none;top=0;left=0;bottom=0;right=0;" parent="C-vyLk0tnHw3VtMMgP7b-27" vertex="1">
          <mxGeometry width="30" height="130" as="geometry">
            <mxRectangle width="30" height="130" as="alternateBounds" />
          </mxGeometry>
        </mxCell>
        <mxCell id="C-vyLk0tnHw3VtMMgP7b-29" value="name&#xa;password&#xa;email&#xa;phone&#xa;city&#xa;date joined&#xa;status&#xa;hashed password" style="shape=partialRectangle;overflow=hidden;connectable=0;fillColor=none;top=0;left=0;bottom=0;right=0;align=left;spacingLeft=6;" parent="C-vyLk0tnHw3VtMMgP7b-27" vertex="1">
          <mxGeometry x="30" width="220" height="130" as="geometry">
            <mxRectangle width="220" height="130" as="alternateBounds" />
          </mxGeometry>
        </mxCell>
        <mxCell id="R_KXiLifHRhBbQVZmg2O-18" value="Passenger" style="swimlane;whiteSpace=wrap;html=1;" parent="1" vertex="1">
          <mxGeometry x="500" y="320" width="200" height="90" as="geometry" />
        </mxCell>
        <mxCell id="R_KXiLifHRhBbQVZmg2O-25" value="Website backup" style="swimlane;whiteSpace=wrap;html=1;startSize=23;" parent="1" vertex="1">
          <mxGeometry x="110" y="310" width="200" height="110" as="geometry" />
        </mxCell>
        <mxCell id="R_KXiLifHRhBbQVZmg2O-39" value="Ticket" style="shape=table;startSize=30;container=1;collapsible=1;childLayout=tableLayout;fixedRows=1;rowLines=0;fontStyle=1;align=center;resizeLast=1;" parent="1" vertex="1">
          <mxGeometry x="640" y="880" width="265" height="240" as="geometry">
            <mxRectangle x="120" y="120" width="100" height="30" as="alternateBounds" />
          </mxGeometry>
        </mxCell>
        <mxCell id="R_KXiLifHRhBbQVZmg2O-40" value="" style="shape=partialRectangle;collapsible=0;dropTarget=0;pointerEvents=0;fillColor=none;points=[[0,0.5],[1,0.5]];portConstraint=eastwest;top=0;left=0;right=0;bottom=1;" parent="R_KXiLifHRhBbQVZmg2O-39" vertex="1">
          <mxGeometry y="30" width="265" height="30" as="geometry" />
        </mxCell>
        <mxCell id="R_KXiLifHRhBbQVZmg2O-41" value="PK" style="shape=partialRectangle;overflow=hidden;connectable=0;fillColor=none;top=0;left=0;bottom=0;right=0;fontStyle=1;" parent="R_KXiLifHRhBbQVZmg2O-40" vertex="1">
          <mxGeometry width="40" height="30" as="geometry">
            <mxRectangle width="40" height="30" as="alternateBounds" />
          </mxGeometry>
        </mxCell>
        <mxCell id="R_KXiLifHRhBbQVZmg2O-42" value="ticket_id" style="shape=partialRectangle;overflow=hidden;connectable=0;fillColor=none;top=0;left=0;bottom=0;right=0;align=left;spacingLeft=6;fontStyle=5;" parent="R_KXiLifHRhBbQVZmg2O-40" vertex="1">
          <mxGeometry x="40" width="225" height="30" as="geometry">
            <mxRectangle width="225" height="30" as="alternateBounds" />
          </mxGeometry>
        </mxCell>
        <mxCell id="R_KXiLifHRhBbQVZmg2O-43" value="" style="shape=partialRectangle;collapsible=0;dropTarget=0;pointerEvents=0;fillColor=none;points=[[0,0.5],[1,0.5]];portConstraint=eastwest;top=0;left=0;right=0;bottom=0;" parent="R_KXiLifHRhBbQVZmg2O-39" vertex="1">
          <mxGeometry y="60" width="265" height="180" as="geometry" />
        </mxCell>
        <mxCell id="R_KXiLifHRhBbQVZmg2O-44" value="" style="shape=partialRectangle;overflow=hidden;connectable=0;fillColor=none;top=0;left=0;bottom=0;right=0;" parent="R_KXiLifHRhBbQVZmg2O-43" vertex="1">
          <mxGeometry width="40" height="180" as="geometry">
            <mxRectangle width="40" height="180" as="alternateBounds" />
          </mxGeometry>
        </mxCell>
        <mxCell id="R_KXiLifHRhBbQVZmg2O-45" value="price&#xa;Trip type(Round-trip or one-way ticket)&#xa;From&#xa;To&#xa;Departure time&#xa;arrival time&#xa;Remaining capacity&#xa;class&#xa;CarrierID&#xa;Vehicle type" style="shape=partialRectangle;overflow=hidden;connectable=0;fillColor=none;top=0;left=0;bottom=0;right=0;align=left;spacingLeft=6;" parent="R_KXiLifHRhBbQVZmg2O-43" vertex="1">
          <mxGeometry x="40" width="225" height="180" as="geometry">
            <mxRectangle width="225" height="180" as="alternateBounds" />
          </mxGeometry>
        </mxCell>
        <mxCell id="R_KXiLifHRhBbQVZmg2O-46" value="airplane" style="swimlane;whiteSpace=wrap;html=1;startSize=23;" parent="1" vertex="1">
          <mxGeometry x="210" y="1590" width="200" height="185" as="geometry" />
        </mxCell>
        <mxCell id="QlvA-Q4Eu4nIA0qFd5DP-67" value="&lt;div&gt;&amp;lt;PK&amp;gt; airplane_id&lt;/div&gt;&lt;div&gt;&amp;lt;FK&amp;gt; Ticket_id&lt;/div&gt;airline name&lt;div&gt;number of stops&lt;/div&gt;&lt;div&gt;class&lt;/div&gt;&lt;div&gt;flight number&lt;/div&gt;&lt;div&gt;departure airport&lt;/div&gt;&lt;div&gt;destination airport&lt;/div&gt;&lt;div&gt;resources&lt;/div&gt;" style="text;html=1;align=left;verticalAlign=middle;resizable=0;points=[];autosize=1;strokeColor=none;fillColor=none;" parent="R_KXiLifHRhBbQVZmg2O-46" vertex="1">
          <mxGeometry x="17.5" y="35" width="120" height="140" as="geometry" />
        </mxCell>
        <mxCell id="R_KXiLifHRhBbQVZmg2O-55" value="Bus" style="swimlane;whiteSpace=wrap;html=1;" parent="1" vertex="1">
          <mxGeometry x="520" y="1615" width="200" height="130" as="geometry" />
        </mxCell>
        <mxCell id="QlvA-Q4Eu4nIA0qFd5DP-66" value="&lt;div&gt;&amp;lt;PK&amp;gt; Bus_id&lt;/div&gt;&lt;div&gt;&amp;lt;FK&amp;gt; Ticket_id&lt;/div&gt;stars&lt;div&gt;resources&lt;/div&gt;&lt;div&gt;Closed compartment&lt;/div&gt;" style="text;html=1;align=left;verticalAlign=middle;resizable=0;points=[];autosize=1;strokeColor=none;fillColor=none;" parent="R_KXiLifHRhBbQVZmg2O-55" vertex="1">
          <mxGeometry x="20" y="30" width="130" height="90" as="geometry" />
        </mxCell>
        <mxCell id="R_KXiLifHRhBbQVZmg2O-56" value="Train" style="swimlane;whiteSpace=wrap;html=1;" parent="1" vertex="1">
          <mxGeometry x="810" y="1615" width="200" height="130" as="geometry" />
        </mxCell>
        <mxCell id="QlvA-Q4Eu4nIA0qFd5DP-68" value="&lt;div&gt;&amp;lt;PK&amp;gt; Train_id&lt;/div&gt;&lt;div&gt;&amp;lt;FK&amp;gt; Ticket_id&lt;/div&gt;company name&lt;div&gt;type&lt;/div&gt;&lt;div&gt;number of seats in each row&lt;/div&gt;&lt;div&gt;resources&lt;/div&gt;" style="text;html=1;align=left;verticalAlign=middle;resizable=0;points=[];autosize=1;strokeColor=none;fillColor=none;" parent="R_KXiLifHRhBbQVZmg2O-56" vertex="1">
          <mxGeometry x="15" y="30" width="170" height="100" as="geometry" />
        </mxCell>
        <mxCell id="QlvA-Q4Eu4nIA0qFd5DP-13" value="" style="endArrow=none;html=1;rounded=0;entryX=0.5;entryY=1;entryDx=0;entryDy=0;exitX=0.5;exitY=0;exitDx=0;exitDy=0;" parent="1" source="R_KXiLifHRhBbQVZmg2O-18" target="C-vyLk0tnHw3VtMMgP7b-23" edge="1">
          <mxGeometry relative="1" as="geometry">
            <mxPoint x="290" y="160" as="sourcePoint" />
            <mxPoint x="450" y="160" as="targetPoint" />
          </mxGeometry>
        </mxCell>
        <mxCell id="QlvA-Q4Eu4nIA0qFd5DP-14" value="" style="endArrow=none;html=1;rounded=0;entryX=0.5;entryY=1;entryDx=0;entryDy=0;exitX=0.5;exitY=0;exitDx=0;exitDy=0;" parent="1" source="R_KXiLifHRhBbQVZmg2O-25" target="C-vyLk0tnHw3VtMMgP7b-23" edge="1">
          <mxGeometry relative="1" as="geometry">
            <mxPoint x="400" y="210" as="sourcePoint" />
            <mxPoint x="475" y="120" as="targetPoint" />
          </mxGeometry>
        </mxCell>
        <mxCell id="QlvA-Q4Eu4nIA0qFd5DP-15" value="Reservation" style="swimlane;whiteSpace=wrap;html=1;" parent="1" vertex="1">
          <mxGeometry x="510" y="630" width="200" height="130" as="geometry" />
        </mxCell>
        <mxCell id="QlvA-Q4Eu4nIA0qFd5DP-26" value="&lt;div&gt;&amp;lt;PK&amp;gt; Reservation_id&lt;/div&gt;&amp;lt;FK&amp;gt; User_id&lt;div&gt;&amp;lt;FK&amp;gt;Ticket_id&lt;/div&gt;&lt;div&gt;status&lt;/div&gt;&lt;div&gt;Reservation date&lt;/div&gt;&lt;div&gt;Expiration date&lt;/div&gt;" style="text;html=1;align=left;verticalAlign=middle;resizable=0;points=[];autosize=1;strokeColor=none;fillColor=none;" parent="QlvA-Q4Eu4nIA0qFd5DP-15" vertex="1">
          <mxGeometry x="10" y="25" width="140" height="100" as="geometry" />
        </mxCell>
        <mxCell id="QlvA-Q4Eu4nIA0qFd5DP-22" value="" style="endArrow=none;html=1;rounded=0;exitX=0.5;exitY=1;exitDx=0;exitDy=0;entryX=0.5;entryY=0;entryDx=0;entryDy=0;" parent="1" source="QlvA-Q4Eu4nIA0qFd5DP-15" target="Qbu00J63nKBwucqeoDRz-11" edge="1">
          <mxGeometry relative="1" as="geometry">
            <mxPoint x="340" y="600" as="sourcePoint" />
            <mxPoint x="490" y="600" as="targetPoint" />
          </mxGeometry>
        </mxCell>
        <mxCell id="QlvA-Q4Eu4nIA0qFd5DP-23" value="1" style="resizable=0;html=1;whiteSpace=wrap;align=left;verticalAlign=bottom;" parent="QlvA-Q4Eu4nIA0qFd5DP-22" connectable="0" vertex="1">
          <mxGeometry x="-1" relative="1" as="geometry" />
        </mxCell>
        <mxCell id="QlvA-Q4Eu4nIA0qFd5DP-27" value="Pay" style="shape=rhombus;perimeter=rhombusPerimeter;whiteSpace=wrap;html=1;align=center;" parent="1" vertex="1">
          <mxGeometry x="550" y="472.5" width="120" height="60" as="geometry" />
        </mxCell>
        <mxCell id="QlvA-Q4Eu4nIA0qFd5DP-29" value="" style="endArrow=none;html=1;rounded=0;exitX=0.5;exitY=0;exitDx=0;exitDy=0;entryX=0.5;entryY=1;entryDx=0;entryDy=0;" parent="1" source="QlvA-Q4Eu4nIA0qFd5DP-27" target="R_KXiLifHRhBbQVZmg2O-18" edge="1">
          <mxGeometry relative="1" as="geometry">
            <mxPoint x="370" y="490" as="sourcePoint" />
            <mxPoint x="530" y="490" as="targetPoint" />
          </mxGeometry>
        </mxCell>
        <mxCell id="QlvA-Q4Eu4nIA0qFd5DP-30" value="1" style="resizable=0;html=1;whiteSpace=wrap;align=right;verticalAlign=bottom;" parent="QlvA-Q4Eu4nIA0qFd5DP-29" connectable="0" vertex="1">
          <mxGeometry x="1" relative="1" as="geometry" />
        </mxCell>
        <mxCell id="QlvA-Q4Eu4nIA0qFd5DP-34" value="" style="endArrow=none;html=1;rounded=0;entryX=0;entryY=0.5;entryDx=0;entryDy=0;exitX=1;exitY=0.5;exitDx=0;exitDy=0;" parent="1" source="QlvA-Q4Eu4nIA0qFd5DP-27" target="QlvA-Q4Eu4nIA0qFd5DP-36" edge="1">
          <mxGeometry relative="1" as="geometry">
            <mxPoint x="760" y="586.25" as="sourcePoint" />
            <mxPoint x="680" y="580" as="targetPoint" />
          </mxGeometry>
        </mxCell>
        <mxCell id="QlvA-Q4Eu4nIA0qFd5DP-35" value="1" style="resizable=0;html=1;whiteSpace=wrap;align=right;verticalAlign=bottom;" parent="QlvA-Q4Eu4nIA0qFd5DP-34" connectable="0" vertex="1">
          <mxGeometry x="1" relative="1" as="geometry" />
        </mxCell>
        <mxCell id="QlvA-Q4Eu4nIA0qFd5DP-36" value="Payment" style="swimlane;whiteSpace=wrap;html=1;" parent="1" vertex="1">
          <mxGeometry x="720" y="431.25" width="200" height="142.5" as="geometry" />
        </mxCell>
        <mxCell id="QlvA-Q4Eu4nIA0qFd5DP-60" value="&lt;div&gt;&amp;lt;PK&amp;gt; Payment_id&lt;/div&gt;&amp;lt;FK&amp;gt; User_id&lt;div&gt;&amp;lt;FK&amp;gt; Reservation_id&lt;/div&gt;&lt;div&gt;price&lt;/div&gt;&lt;div&gt;method&lt;/div&gt;&lt;div&gt;status&lt;/div&gt;&lt;div&gt;date&lt;/div&gt;" style="text;html=1;align=left;verticalAlign=middle;resizable=0;points=[];autosize=1;strokeColor=none;fillColor=none;" parent="QlvA-Q4Eu4nIA0qFd5DP-36" vertex="1">
          <mxGeometry x="10" y="20" width="140" height="110" as="geometry" />
        </mxCell>
        <mxCell id="QlvA-Q4Eu4nIA0qFd5DP-64" value="Report" style="swimlane;whiteSpace=wrap;html=1;" parent="1" vertex="1">
          <mxGeometry x="1190" y="301.25" width="200" height="130" as="geometry" />
        </mxCell>
        <mxCell id="QlvA-Q4Eu4nIA0qFd5DP-65" value="&lt;div&gt;&amp;lt;PK&amp;gt; report_id&lt;/div&gt;&amp;lt;FK&amp;gt; User_id&lt;div&gt;&amp;lt;FK&amp;gt; Reservation_id&lt;/div&gt;&lt;div&gt;&amp;lt;FK&amp;gt; Ticket_id&lt;/div&gt;&lt;div&gt;Type&lt;/div&gt;&lt;div&gt;status&lt;/div&gt;&lt;div&gt;message&lt;/div&gt;" style="text;html=1;align=left;verticalAlign=middle;resizable=0;points=[];autosize=1;strokeColor=none;fillColor=none;" parent="QlvA-Q4Eu4nIA0qFd5DP-64" vertex="1">
          <mxGeometry x="10" y="20" width="140" height="110" as="geometry" />
        </mxCell>
        <mxCell id="GF_8dhkuiuaE5KneLGKz-1" value="report" style="shape=rhombus;perimeter=rhombusPerimeter;whiteSpace=wrap;html=1;align=center;" parent="1" vertex="1">
          <mxGeometry x="1020" y="335" width="120" height="60" as="geometry" />
        </mxCell>
        <mxCell id="GF_8dhkuiuaE5KneLGKz-3" value="" style="endArrow=none;html=1;rounded=0;exitX=0.06;exitY=0.543;exitDx=0;exitDy=0;exitPerimeter=0;entryX=1;entryY=0.5;entryDx=0;entryDy=0;" parent="1" source="GF_8dhkuiuaE5KneLGKz-1" target="R_KXiLifHRhBbQVZmg2O-18" edge="1">
          <mxGeometry relative="1" as="geometry">
            <mxPoint x="720" y="440" as="sourcePoint" />
            <mxPoint x="880" y="440" as="targetPoint" />
          </mxGeometry>
        </mxCell>
        <mxCell id="GF_8dhkuiuaE5KneLGKz-4" value="1" style="resizable=0;html=1;whiteSpace=wrap;align=right;verticalAlign=bottom;" parent="GF_8dhkuiuaE5KneLGKz-3" connectable="0" vertex="1">
          <mxGeometry x="1" relative="1" as="geometry" />
        </mxCell>
        <mxCell id="GF_8dhkuiuaE5KneLGKz-5" value="" style="endArrow=none;html=1;rounded=0;exitX=1;exitY=0.5;exitDx=0;exitDy=0;entryX=0;entryY=0.5;entryDx=0;entryDy=0;" parent="1" source="GF_8dhkuiuaE5KneLGKz-1" target="QlvA-Q4Eu4nIA0qFd5DP-64" edge="1">
          <mxGeometry relative="1" as="geometry">
            <mxPoint x="1027" y="420" as="sourcePoint" />
            <mxPoint x="910" y="422" as="targetPoint" />
          </mxGeometry>
        </mxCell>
        <mxCell id="GF_8dhkuiuaE5KneLGKz-6" value="N" style="resizable=0;html=1;whiteSpace=wrap;align=right;verticalAlign=bottom;" parent="GF_8dhkuiuaE5KneLGKz-5" connectable="0" vertex="1">
          <mxGeometry x="1" relative="1" as="geometry" />
        </mxCell>
        <mxCell id="GF_8dhkuiuaE5KneLGKz-16" value="Uses" style="shape=rhombus;perimeter=rhombusPerimeter;whiteSpace=wrap;html=1;align=center;" parent="1" vertex="1">
          <mxGeometry x="640" y="1160" width="120" height="60" as="geometry" />
        </mxCell>
        <mxCell id="GF_8dhkuiuaE5KneLGKz-23" value="" style="endArrow=none;html=1;rounded=0;entryX=0.5;entryY=1;entryDx=0;entryDy=0;" parent="1" source="GF_8dhkuiuaE5KneLGKz-16" target="R_KXiLifHRhBbQVZmg2O-39" edge="1">
          <mxGeometry relative="1" as="geometry">
            <mxPoint x="320" y="1230" as="sourcePoint" />
            <mxPoint x="670" y="1210" as="targetPoint" />
          </mxGeometry>
        </mxCell>
        <mxCell id="GF_8dhkuiuaE5KneLGKz-24" value="1" style="resizable=0;html=1;whiteSpace=wrap;align=right;verticalAlign=bottom;" parent="GF_8dhkuiuaE5KneLGKz-23" connectable="0" vertex="1">
          <mxGeometry x="1" relative="1" as="geometry" />
        </mxCell>
        <mxCell id="Qbu00J63nKBwucqeoDRz-1" value="Has" style="shape=rhombus;perimeter=rhombusPerimeter;whiteSpace=wrap;html=1;align=center;" parent="1" vertex="1">
          <mxGeometry x="820" y="670" width="120" height="60" as="geometry" />
        </mxCell>
        <mxCell id="Qbu00J63nKBwucqeoDRz-2" value="" style="endArrow=none;html=1;rounded=0;entryX=1;entryY=0.5;entryDx=0;entryDy=0;exitX=0;exitY=0.5;exitDx=0;exitDy=0;" parent="1" source="Qbu00J63nKBwucqeoDRz-1" target="QlvA-Q4Eu4nIA0qFd5DP-15" edge="1">
          <mxGeometry relative="1" as="geometry">
            <mxPoint x="815" y="694.5" as="sourcePoint" />
            <mxPoint x="735" y="694.5" as="targetPoint" />
          </mxGeometry>
        </mxCell>
        <mxCell id="Qbu00J63nKBwucqeoDRz-3" value="1" style="resizable=0;html=1;whiteSpace=wrap;align=right;verticalAlign=bottom;" parent="Qbu00J63nKBwucqeoDRz-2" connectable="0" vertex="1">
          <mxGeometry x="1" relative="1" as="geometry" />
        </mxCell>
        <mxCell id="Qbu00J63nKBwucqeoDRz-4" value="" style="endArrow=none;html=1;rounded=0;exitX=0.5;exitY=0;exitDx=0;exitDy=0;entryX=0.5;entryY=1;entryDx=0;entryDy=0;" parent="1" source="Qbu00J63nKBwucqeoDRz-1" target="QlvA-Q4Eu4nIA0qFd5DP-36" edge="1">
          <mxGeometry relative="1" as="geometry">
            <mxPoint x="910" y="630" as="sourcePoint" />
            <mxPoint x="840" y="610" as="targetPoint" />
          </mxGeometry>
        </mxCell>
        <mxCell id="Qbu00J63nKBwucqeoDRz-5" value="1" style="resizable=0;html=1;whiteSpace=wrap;align=right;verticalAlign=bottom;" parent="Qbu00J63nKBwucqeoDRz-4" connectable="0" vertex="1">
          <mxGeometry x="1" relative="1" as="geometry" />
        </mxCell>
        <mxCell id="Qbu00J63nKBwucqeoDRz-6" value="Has" style="shape=rhombus;perimeter=rhombusPerimeter;whiteSpace=wrap;html=1;align=center;" parent="1" vertex="1">
          <mxGeometry x="380" y="472.5" width="120" height="60" as="geometry" />
        </mxCell>
        <mxCell id="Qbu00J63nKBwucqeoDRz-7" value="" style="endArrow=none;html=1;rounded=0;exitX=0.5;exitY=0;exitDx=0;exitDy=0;entryX=0;entryY=0.5;entryDx=0;entryDy=0;" parent="1" source="Qbu00J63nKBwucqeoDRz-6" target="R_KXiLifHRhBbQVZmg2O-18" edge="1">
          <mxGeometry relative="1" as="geometry">
            <mxPoint x="420" y="463" as="sourcePoint" />
            <mxPoint x="410" y="400" as="targetPoint" />
          </mxGeometry>
        </mxCell>
        <mxCell id="Qbu00J63nKBwucqeoDRz-8" value="1" style="resizable=0;html=1;whiteSpace=wrap;align=right;verticalAlign=bottom;" parent="Qbu00J63nKBwucqeoDRz-7" connectable="0" vertex="1">
          <mxGeometry x="1" relative="1" as="geometry" />
        </mxCell>
        <mxCell id="Qbu00J63nKBwucqeoDRz-9" value="" style="endArrow=none;html=1;rounded=0;exitX=0.5;exitY=1;exitDx=0;exitDy=0;entryX=0;entryY=0.5;entryDx=0;entryDy=0;" parent="1" source="Qbu00J63nKBwucqeoDRz-6" target="QlvA-Q4Eu4nIA0qFd5DP-15" edge="1">
          <mxGeometry relative="1" as="geometry">
            <mxPoint x="420" y="781.25" as="sourcePoint" />
            <mxPoint x="350" y="618.75" as="targetPoint" />
          </mxGeometry>
        </mxCell>
        <mxCell id="Qbu00J63nKBwucqeoDRz-10" value="N" style="resizable=0;html=1;whiteSpace=wrap;align=right;verticalAlign=bottom;" parent="Qbu00J63nKBwucqeoDRz-9" connectable="0" vertex="1">
          <mxGeometry x="1" relative="1" as="geometry" />
        </mxCell>
        <mxCell id="Qbu00J63nKBwucqeoDRz-11" value="Has" style="shape=rhombus;perimeter=rhombusPerimeter;whiteSpace=wrap;html=1;align=center;" parent="1" vertex="1">
          <mxGeometry x="550" y="780" width="120" height="60" as="geometry" />
        </mxCell>
        <mxCell id="Qbu00J63nKBwucqeoDRz-12" value="" style="endArrow=none;html=1;rounded=0;exitX=0.5;exitY=1;exitDx=0;exitDy=0;entryX=0.5;entryY=0;entryDx=0;entryDy=0;" parent="1" source="Qbu00J63nKBwucqeoDRz-11" target="R_KXiLifHRhBbQVZmg2O-39" edge="1">
          <mxGeometry relative="1" as="geometry">
            <mxPoint x="427" y="760" as="sourcePoint" />
            <mxPoint x="420" y="870" as="targetPoint" />
          </mxGeometry>
        </mxCell>
        <mxCell id="Qbu00J63nKBwucqeoDRz-14" value="1" style="resizable=0;html=1;whiteSpace=wrap;align=right;verticalAlign=bottom;" parent="Qbu00J63nKBwucqeoDRz-12" connectable="0" vertex="1">
          <mxGeometry x="1" relative="1" as="geometry" />
        </mxCell>
        <mxCell id="W2Vj1SR-vE9dCmr36doc-2" value="" style="endArrow=none;html=1;rounded=0;entryX=0.5;entryY=0;entryDx=0;entryDy=0;exitX=0.5;exitY=1;exitDx=0;exitDy=0;" edge="1" parent="1" source="QlvA-Q4Eu4nIA0qFd5DP-27" target="QlvA-Q4Eu4nIA0qFd5DP-15">
          <mxGeometry relative="1" as="geometry">
            <mxPoint x="680" y="513" as="sourcePoint" />
            <mxPoint x="760" y="519" as="targetPoint" />
          </mxGeometry>
        </mxCell>
        <mxCell id="W2Vj1SR-vE9dCmr36doc-3" value="1" style="resizable=0;html=1;whiteSpace=wrap;align=right;verticalAlign=bottom;" connectable="0" vertex="1" parent="W2Vj1SR-vE9dCmr36doc-2">
          <mxGeometry x="1" relative="1" as="geometry" />
        </mxCell>
        <mxCell id="W2Vj1SR-vE9dCmr36doc-4" value="" style="endArrow=none;html=1;rounded=0;exitX=0.5;exitY=1;exitDx=0;exitDy=0;entryX=0.986;entryY=0.038;entryDx=0;entryDy=0;entryPerimeter=0;" edge="1" parent="1" source="GF_8dhkuiuaE5KneLGKz-1" target="R_KXiLifHRhBbQVZmg2O-39">
          <mxGeometry relative="1" as="geometry">
            <mxPoint x="887" y="263" as="sourcePoint" />
            <mxPoint x="1130" y="800" as="targetPoint" />
          </mxGeometry>
        </mxCell>
        <mxCell id="W2Vj1SR-vE9dCmr36doc-5" value="1" style="resizable=0;html=1;whiteSpace=wrap;align=right;verticalAlign=bottom;" connectable="0" vertex="1" parent="W2Vj1SR-vE9dCmr36doc-4">
          <mxGeometry x="1" relative="1" as="geometry" />
        </mxCell>
        <mxCell id="W2Vj1SR-vE9dCmr36doc-6" value="Vehicle" style="swimlane;whiteSpace=wrap;html=1;" vertex="1" parent="1">
          <mxGeometry x="532.5" y="1320" width="200" height="130" as="geometry" />
        </mxCell>
        <mxCell id="W2Vj1SR-vE9dCmr36doc-7" value="&lt;div&gt;&amp;lt;PK&amp;gt; vehicle_id&lt;/div&gt;&lt;div&gt;&amp;lt;FK&amp;gt; Ticket_id&lt;/div&gt;" style="text;html=1;align=left;verticalAlign=middle;resizable=0;points=[];autosize=1;strokeColor=none;fillColor=none;" vertex="1" parent="W2Vj1SR-vE9dCmr36doc-6">
          <mxGeometry x="20" y="55" width="110" height="40" as="geometry" />
        </mxCell>
        <mxCell id="W2Vj1SR-vE9dCmr36doc-8" value="" style="endArrow=none;html=1;rounded=0;exitX=0.5;exitY=1;exitDx=0;exitDy=0;entryX=0.5;entryY=0;entryDx=0;entryDy=0;" edge="1" parent="1" source="GF_8dhkuiuaE5KneLGKz-16" target="W2Vj1SR-vE9dCmr36doc-6">
          <mxGeometry relative="1" as="geometry">
            <mxPoint x="626" y="1230" as="sourcePoint" />
            <mxPoint x="820" y="1287" as="targetPoint" />
          </mxGeometry>
        </mxCell>
        <mxCell id="W2Vj1SR-vE9dCmr36doc-9" value="1" style="resizable=0;html=1;whiteSpace=wrap;align=right;verticalAlign=bottom;" connectable="0" vertex="1" parent="W2Vj1SR-vE9dCmr36doc-8">
          <mxGeometry x="1" relative="1" as="geometry" />
        </mxCell>
        <mxCell id="W2Vj1SR-vE9dCmr36doc-10" value="D" style="ellipse;whiteSpace=wrap;html=1;aspect=fixed;" vertex="1" parent="1">
          <mxGeometry x="612.5" y="1500" width="40" height="40" as="geometry" />
        </mxCell>
        <mxCell id="W2Vj1SR-vE9dCmr36doc-11" value="" style="endArrow=none;html=1;rounded=0;exitX=0.5;exitY=1;exitDx=0;exitDy=0;entryX=0.5;entryY=0;entryDx=0;entryDy=0;" edge="1" parent="1" source="W2Vj1SR-vE9dCmr36doc-6" target="W2Vj1SR-vE9dCmr36doc-10">
          <mxGeometry relative="1" as="geometry">
            <mxPoint x="860" y="1360" as="sourcePoint" />
            <mxPoint x="873" y="1480" as="targetPoint" />
          </mxGeometry>
        </mxCell>
        <mxCell id="W2Vj1SR-vE9dCmr36doc-12" value="" style="resizable=0;html=1;whiteSpace=wrap;align=right;verticalAlign=bottom;" connectable="0" vertex="1" parent="W2Vj1SR-vE9dCmr36doc-11">
          <mxGeometry x="1" relative="1" as="geometry" />
        </mxCell>
        <mxCell id="W2Vj1SR-vE9dCmr36doc-13" value="" style="endArrow=none;html=1;rounded=0;exitX=0.5;exitY=1;exitDx=0;exitDy=0;entryX=0.5;entryY=0;entryDx=0;entryDy=0;" edge="1" parent="1" source="W2Vj1SR-vE9dCmr36doc-10" target="R_KXiLifHRhBbQVZmg2O-56">
          <mxGeometry relative="1" as="geometry">
            <mxPoint x="765" y="1520" as="sourcePoint" />
            <mxPoint x="765" y="1570" as="targetPoint" />
          </mxGeometry>
        </mxCell>
        <mxCell id="W2Vj1SR-vE9dCmr36doc-14" value="" style="resizable=0;html=1;whiteSpace=wrap;align=right;verticalAlign=bottom;" connectable="0" vertex="1" parent="W2Vj1SR-vE9dCmr36doc-13">
          <mxGeometry x="1" relative="1" as="geometry" />
        </mxCell>
        <mxCell id="W2Vj1SR-vE9dCmr36doc-15" value="" style="endArrow=none;html=1;rounded=0;exitX=0.5;exitY=1;exitDx=0;exitDy=0;entryX=0.5;entryY=0;entryDx=0;entryDy=0;" edge="1" parent="1" source="W2Vj1SR-vE9dCmr36doc-10" target="R_KXiLifHRhBbQVZmg2O-55">
          <mxGeometry relative="1" as="geometry">
            <mxPoint x="643" y="1550" as="sourcePoint" />
            <mxPoint x="920" y="1625" as="targetPoint" />
          </mxGeometry>
        </mxCell>
        <mxCell id="W2Vj1SR-vE9dCmr36doc-16" value="" style="resizable=0;html=1;whiteSpace=wrap;align=right;verticalAlign=bottom;" connectable="0" vertex="1" parent="W2Vj1SR-vE9dCmr36doc-15">
          <mxGeometry x="1" relative="1" as="geometry" />
        </mxCell>
        <mxCell id="W2Vj1SR-vE9dCmr36doc-17" value="" style="endArrow=none;html=1;rounded=0;exitX=0.5;exitY=1;exitDx=0;exitDy=0;entryX=0.5;entryY=0;entryDx=0;entryDy=0;" edge="1" parent="1" source="W2Vj1SR-vE9dCmr36doc-10" target="R_KXiLifHRhBbQVZmg2O-46">
          <mxGeometry relative="1" as="geometry">
            <mxPoint x="473" y="1520" as="sourcePoint" />
            <mxPoint x="460" y="1595" as="targetPoint" />
          </mxGeometry>
        </mxCell>
        <mxCell id="W2Vj1SR-vE9dCmr36doc-18" value="" style="resizable=0;html=1;whiteSpace=wrap;align=right;verticalAlign=bottom;" connectable="0" vertex="1" parent="W2Vj1SR-vE9dCmr36doc-17">
          <mxGeometry x="1" relative="1" as="geometry" />
        </mxCell>
        <mxCell id="W2Vj1SR-vE9dCmr36doc-19" value="" style="endArrow=none;html=1;rounded=0;entryX=1;entryY=0;entryDx=0;entryDy=0;" edge="1" parent="1" target="W2Vj1SR-vE9dCmr36doc-10">
          <mxGeometry relative="1" as="geometry">
            <mxPoint x="643" y="1450" as="sourcePoint" />
            <mxPoint x="643" y="1500" as="targetPoint" />
          </mxGeometry>
        </mxCell>
        <mxCell id="W2Vj1SR-vE9dCmr36doc-20" value="" style="resizable=0;html=1;whiteSpace=wrap;align=right;verticalAlign=bottom;" connectable="0" vertex="1" parent="W2Vj1SR-vE9dCmr36doc-19">
          <mxGeometry x="1" relative="1" as="geometry" />
        </mxCell>
      </root>
    </mxGraphModel>
  </diagram>
</mxfile>
